<svg width="403.71" height="382.69" version="1.1" viewBox="0 0 403.71 382.69" xmlns="http://www.w3.org/2000/svg">
    <g transform="translate(-48.919 -37.197)">
        <g>
            <path d="m446.03 293.32c-0.19745-4.3266-4.5677-2.0576-7.0527-1.4001-5.0222 1.2993-10.602-0.0305-14.329-3.691-8.0457-7.4037-11.226-18.957-20.492-25.218-8.131-5.7518-19.782-5.6224-27.806 0.26772-1.9834 0.68731 0.25027 1.9274 0.75748 2.9374 0.95681 2.013 2.134 1.6736 3.6739 0.15369 7.4718-4.5138 17.799-2.9846 23.775 3.3359 7.3589 7.4904 10.765 18.37 19.659 24.446 5.9753 4.034 13.877 6.0685 20.84 3.5425 2.5922-0.82276 3.1901-2.5875 0.97432-4.3741z" stop-color="#000000" style="font-variation-settings:normal"/>
            <path d="m451.11 345.51c-0.65037-4.4381-5.2957-1.994-8.1023-1.6289-6.1743 1.0669-12.577-2.0818-15.815-7.3869-5.8985-9.5581-6.4058-21.686-13.57-30.583-6.0993-7.8341-16.496-11.961-26.309-10.485 0.23436 1.6501 0.46872 3.3002 0.70308 4.9503 9.6844-1.5061 19.865 3.794 24.293 12.521 4.8242 9.1725 5.9134 20.028 12.101 28.547 4.424 6.8692 12.614 11.579 20.905 10.419 2.6569-0.47233 5.9264-1.1957 7.3085-3.7563 0.0908-1.0852-0.94619-1.8085-1.5146-2.5977z" stop-color="#000000" style="font-variation-settings:normal"/>
        </g>
        <g>
            <path d="m302.48 135.38c2.1936-22.339 5.2633-45.368-0.73148-67.393-4.1406-15.059-16.905-27.643-32.578-30.031-18.013-2.81-36.735 2.39-52.103 11.836-4.9976 3.0108-9.8459 7.7152-13.432 11.336-12.113 10.575-22.25 26.043-19.705 42.813 2.114 15.094 11.804 28.214 23.499 37.508 24.331 17.812 49.238 24.179 66.445 44.73-8.4117-15.525-20.218-29.209-34.909-39.101-8.3047-6.0979-16.906-11.855-24.512-18.84-3.153-3.2203-9.2804-10.241-11.873-16.002-8.3346-15.987-2.5973-35.289 6.7937-49.391 8.4722-15.561 27.34-24.974 44.803-20.694 14.177 3.0706 26.9 13.333 31.348 27.371 6.8075 15.08 8.153 31.772 8.3467 48.104-0.13304 23.726 3.1803 47.405 1.4256 71.89 3.9888-17.316 6.0958-35.698 7.1819-54.137z" stop-color="#000000" style="-inkscape-stroke:none;font-variation-settings:normal"/>
            <path d="m273.88 186.18c-8.4117-15.525-20.218-29.209-34.909-39.101-8.3047-6.0979-16.906-11.855-24.512-18.84-3.153-3.2203-9.2804-10.241-11.873-16.002-8.3346-15.987-2.5973-35.289 6.7937-49.391 8.4722-15.561 27.34-24.974 44.803-20.694 14.177 3.0706 26.9 13.333 31.348 27.371 6.8075 15.08 8.153 31.772 8.3467 48.104-0.13304 23.726 3.1803 47.405 1.4256 71.89" fill="#fff" opacity=".75" stop-color="#000000" style="-inkscape-stroke:none;font-variation-settings:normal"/>
        </g>
        <g>
            <path d="m238.68 176.63c-10.452 3.9391-26.406 12.106-39.909 28.424-9.6117 11.616-17.561 27.057-20.567 45.105-1.9718 12.42-1.4189 25.506 1.7627 38.282 3.0779 12.36 8.5989 24.336 16.503 34.823 0.062 0.0823 0.153 0.186 0.26594 0.30313 15.632 16.212 35.718 28.077 57.476 33.962 22.715 6.143 46.2 5.5221 67.152-0.4476 16.348-4.6428 30.54-12.372 41.788-21.848 3.0941-2.6066 6.0777-5.438 8.9047-8.5005 6.6718-7.2273 12.369-15.697 16.545-25.045 4.062-9.0918 6.6431-18.925 7.281-29.044 0.65242-10.292-0.73163-20.527-3.7171-30.176-3.0431-9.8358-7.7217-18.98-13.529-26.993-12.687-17.503-30.091-29.192-46.573-36.148-16.065-6.9706-32.222-9.8398-46.58-10.236-19.431-0.53651-35.446 3.3867-46.804 7.539" fill="#803300" stop-color="#000000" style="-inkscape-stroke:none;font-variation-settings:normal"/>
            <path d="m238.68 176.63c11.478-3.881 27.529-7.2777 46.742-6.1302 14.197 0.848 29.965 4.2071 45.423 11.517 15.779 7.6615 31.778 19.774 42.952 36.802 5.0935 7.7626 9.0539 16.457 11.484 25.631 2.3846 9.0023 3.2613 18.339 2.3625 27.538-0.8865 9.0367-3.4703 17.788-7.3322 25.876-3.9729 8.3199-9.2501 15.841-15.328 22.263-2.582 2.7284-5.3003 5.2618-8.1161 7.6072-10.233 8.5227-23.14 15.692-38.172 20.193-19.279 5.7522-41.076 6.778-62.404 1.5468-20.38-4.9986-39.554-15.558-54.8-30.407-7.5243-9.5125-12.972-20.514-16.187-32.032-3.3441-11.98-4.2382-24.372-2.7119-36.244 2.0885-17.334 9.0033-32.609 17.867-44.404 12.473-16.596 27.842-25.434 38.22-29.757-10.452 3.9391-26.406 12.106-39.909 28.424-9.6117 11.616-17.561 27.057-20.567 45.105-1.9718 12.42-1.4189 25.506 1.7627 38.282 3.0779 12.36 8.5989 24.336 16.503 34.823a1.2491 0.15736 41.559 0 0 0.26594 0.30313c15.632 16.212 35.718 28.077 57.476 33.962 22.715 6.143 46.2 5.5221 67.152-0.4476 16.348-4.6428 30.54-12.372 41.788-21.848 3.0941-2.6066 6.0777-5.438 8.9047-8.5005 6.6718-7.2273 12.369-15.697 16.545-25.045 4.062-9.0918 6.6431-18.925 7.281-29.044 0.65242-10.292-0.73163-20.527-3.7171-30.176-3.0431-9.8358-7.7217-18.98-13.529-26.993-12.687-17.503-30.091-29.192-46.573-36.148-16.065-6.9706-32.222-9.8398-46.58-10.236-19.431-0.53651-35.446 3.3867-46.804 7.539z" stop-color="#000000" style="-inkscape-stroke:none;font-variation-settings:normal"/>
        </g>
        <g transform="translate(96.053 -13.507)">
            <g>
                <path transform="translate(-96.053 13.507)" d="m310.54 202.52c8.3811-9.4096 20.301-15.59 32.821-17.017 14.365-1.6378 29.399 3.1152 40.007 12.939 10.608 9.8234 16.516 24.596 15.308 39.003-1.0968 13.078-7.9047 25.437-17.891 33.953-9.9861 8.5156-22.969 13.247-36.075 13.942-10.233 0.54242-20.708-1.3547-29.692-6.2837-8.9846-4.929-16.375-13.011-19.646-22.723-2.3976-7.1168-2.5504-14.864-1.2543-22.261 2.0788-11.864 7.8982-23.044 16.423-31.552" fill="#fff" stop-color="#000000" style="font-variation-settings:normal"/>
                <path transform="translate(-96.053 13.507)" d="m310.54 202.52c3.3034-3.4964 8.3245-7.6879 15.169-10.903 5.087-2.3894 11.141-4.2176 17.812-4.705 6.6391-0.51968 13.725 0.33962 20.592 2.813 6.3284 2.2793 12.345 5.8927 17.314 10.811 4.7538 4.705 8.4593 10.554 10.769 16.973 2.2736 6.3169 3.1481 13.056 2.4239 19.596-0.67898 5.9874-2.6552 11.729-5.5609 16.892-3.009 5.3464-6.9654 9.9904-11.434 13.696-4.7799 3.9645-10.108 6.8874-15.487 8.9351-5.3904 2.0518-11.373 3.4296-17.686 3.8495-9.102 0.63979-18.855-0.66944-27.478-4.9895-4.1786-2.0927-8.0436-4.9157-11.292-8.3091-3.3004-3.4474-5.9128-7.428-7.6056-11.758-2.8411-6.9129-3.2703-14.427-2.5622-21.105 2.0021-15.178 9.566-26.002 15.026-31.797-5.7176 5.3658-14.434 15.701-17.821 31.307-1.6363 6.7455-2.3559 15.079-0.0537 23.417 1.533 5.2467 4.1963 10.183 7.756 14.552 3.4972 4.2925 7.8144 7.9809 12.639 10.827 9.9119 5.849 21.319 7.982 31.907 7.5779 7.3579-0.30481 14.383-1.8114 20.728-4.2265 6.3317-2.41 12.639-5.9776 18.248-10.872 5.2751-4.6029 9.8096-10.325 13.124-16.835 3.2039-6.293 5.2346-13.265 5.6629-20.482 0.48665-7.8952-1.003-15.745-4.0224-22.845-3.0723-7.2244-7.6992-13.616-13.401-18.593-5.9436-5.1886-12.867-8.7161-19.875-10.724-7.616-2.1822-15.256-2.5622-22.232-1.5297-6.9857 1.0692-13.113 3.486-18.112 6.3259-6.7665 3.8435-11.47 8.434-14.548 12.101z" stop-color="#000000" style="font-variation-settings:normal"/>
                <path d="m273.2 228.68a12.142 12.142 0 0 0-12.141 12.143 12.142 12.142 0 0 0 12.141 12.143 12.142 12.142 0 0 0 12.143-12.143 12.142 12.142 0 0 0-12.143-12.143zm5.3066 4.7559a3.1423 3.1423 0 0 1 3.1426 3.1426 3.1423 3.1423 0 0 1-3.1426 3.1426 3.1423 3.1423 0 0 1-3.1426-3.1426 3.1423 3.1423 0 0 1 3.1426-3.1426z" stop-color="#000000"/>
            </g>
        </g>
        <g>
            <path d="m238.25 219.51c7.9638-12.428 22.155-21.07 41.022-19.159 44.717 4.5276 49.53 39.397 35.808 64.351-13.657 24.837-45.673 39.852-74.981 5.3549-12.02-14.149-11.667-35.225-1.849-50.547" fill="#fff" stop-color="#000000"/>
            <path d="m238.25 219.51c2.7716-3.8768 8.2288-9.939 17.075-13.661 6.296-2.649 14.184-4.046 23.653-2.5933 10.696 1.3124 18.803 4.3956 24.716 8.5394 2.9148 2.0429 5.2856 4.3353 7.1818 6.7912 1.9001 2.4609 3.3367 5.1028 4.3686 7.8544 2.101 5.6029 2.5468 11.725 1.7251 17.792-0.86609 6.3959-3.1199 12.611-6.2091 18.093-2.9869 5.2998-6.6726 9.7848-10.6 13.31-0.51522 0.4625-1.0412 0.91453-1.5778 1.3549-4.6374 3.8062-10.045 6.727-16.005 8.0061-2.8662 0.61512-5.8784 0.85438-9.0125 0.61741-3.0961-0.2341-6.3376-0.93505-9.6931-2.2212-6.7246-2.5776-13.885-7.5012-21.101-15.606-2.9754-3.1042-5.2441-6.6197-6.8752-10.35-1.7483-3.9986-2.7323-8.1696-3.1106-12.252-1.0516-11.347 2.5532-20.57 5.4657-25.676-3.3346 4.6575-8.5144 13.545-9.0645 25.751-0.1996 4.429 0.24016 9.2007 1.6361 13.991 1.3059 4.4811 3.4411 8.9504 6.6062 13.074 7.3786 9.0727 15.197 15.249 23.218 18.812 4.0095 1.7814 8.0256 2.8893 11.994 3.3885 4.0175 0.50539 7.9388 0.38088 11.701-0.26564 7.8036-1.3411 14.786-4.911 20.526-9.5175 0.66461-0.53335 1.3132-1.0808 1.9456-1.6407 4.814-4.2627 9.1751-9.6865 12.588-16.026 3.5256-6.5477 6.0084-14.034 6.7547-21.798 0.70984-7.3851-0.16245-14.995-3.2185-21.987-1.4996-3.431-3.5098-6.6754-6.0706-9.6348-2.5549-2.9526-5.6293-5.5887-9.2369-7.8394-7.2976-4.5529-16.633-7.4434-28.063-8.3721-10.719-0.58872-19.216 2.1039-25.546 5.8127-8.7854 5.1473-13.48 12.245-15.77 16.252z" stop-color="#000000"/>
            <path d="m273.2 228.68a12.142 12.142 0 0 0-12.143 12.143 12.142 12.142 0 0 0 12.143 12.143 12.142 12.142 0 0 0 12.143-12.143 12.142 12.142 0 0 0-12.143-12.143zm5.3066 4.7559a3.1423 3.1423 0 0 1 3.1426 3.1406 3.1423 3.1423 0 0 1-3.1426 3.1426 3.1423 3.1423 0 0 1-3.1426-3.1426 3.1423 3.1423 0 0 1 3.1426-3.1406z" stop-color="#000000"/>
        </g>
        <g>
            <path d="m323.05 314.05s19.3 21.72 24.764 34.894c3.9858 9.6103 5.2529 30.767 5.2529 30.767 12.738 11.021 17.997 3.3434 22.888-5.2529 0 0-19.033-24.739-25.889-38.646-4.3196-8.7621-9.3802-27.765-9.3802-27.765-3.9594 6.4784-10.448 7.0544-17.635 6.0033z" fill="#502d16" stop-color="#000000" style="font-variation-settings:normal"/>
            <path d="m364.79 369c-5.3048 0.0784-8.5893 5.2078-11.723 10.715 12.738 11.021 17.998 3.3424 22.889-5.2539-4.5777-3.9606-8.1901-5.5049-11.166-5.4609z" stop-color="#000000" style="font-variation-settings:normal"/>
        </g>
        <g>
            <path d="m207.63 226.53c-26.102-7.9249-51.372-18.361-75.871-30.311-20.849-10.335-45.208-11.025-65.324-23.008-13.464-7.5962-15.142-25.747-9.6883-38.851 5.8753-14.018 15.619-26.217 26.374-36.812 8.4942-8.2081 21.852-12.729 32.867-6.8047 11.452 5.923 20.453 15.489 30.642 23.23 23.259 19.084 46.3 38.674 65.977 61.534 8.3641 8.854 16.412 18.064 23.356 28.088-7.8565-18.633-17.26-36.867-30.944-51.946-19.6-23.014-42.207-43.276-65.228-62.767-12.757-9.9626-32.09-15.021-46.212-4.8732-11.897 8.376-18.78 21.651-28.122 32.483-11.132 13.947-20.508 32.563-14.82 50.663 4.5656 16.573 20.343 27.461 36.683 30.356 15.246 3.0324 30.843 4.4134 45.691 9.2961 24.676 7.3433 49.305 14.822 74.62 19.724z" stop-color="#000000" style="-inkscape-stroke:none;font-variation-settings:normal"/>
            <path d="m105.19 88.047c-8.0955-0.038525-16.234 3.8608-22.074 9.5039-10.754 10.595-20.498 22.794-26.373 36.812-5.4534 13.104-3.7763 31.255 9.6875 38.852 20.115 11.983 44.476 12.673 65.324 23.008 24.498 11.951 49.769 22.386 75.871 30.311 3.6266-8.9625 15.164-20.102 28.332-22.936-6.9441-10.024-14.991-19.234-23.355-28.088-19.677-22.86-42.717-42.45-65.977-61.533-10.188-7.7417-19.19-17.308-30.643-23.23-3.4421-1.8514-7.1132-2.6817-10.793-2.6992z" fill="#fff" opacity=".75" stop-color="#000000" style="-inkscape-stroke:none;font-variation-settings:normal"/>
        </g>
        <g>
            <path d="m148.41 344.71c-2.0211 4.104 3.5478 4.0367 6.0952 3.1722 11.281-2.7947 19.627-13.073 21.784-24.256 2.6904-11.496 0.57084-24.173 6.4945-34.827 4.9597-8.9234 15.878-13.882 25.866-11.789 0.31451-1.6367 0.62903-3.2734 0.94354-4.9102-12.447-2.525-25.987 3.8924-31.951 15.098-6.8398 12.378-3.6627 27.259-8.6569 40.177-2.3369 6.7064-8.577 11.358-15.402 12.759-2.5099 0.61135-7.001 0.72245-5.1741 4.5763z" stop-color="#000000" style="font-variation-settings:normal"/>
            <path d="m189.38 388.38c-2.1355 4.4516 4.1633 4.469 6.9305 3.6976 10.385-2.1332 17.938-11.731 19.384-21.966 2.3065-12.173-1.768-24.205-2.7087-36.269-1.0929-10.434 3.0929-21.416 11.546-27.81 2.2827-2.2328 6.3714-3.3211 8.2818-5.0069-0.50843-1.439-1.0168-2.8781-1.5253-4.3171-13.027 4.4266-22.593 17.158-23.255 30.898-0.99671 13.194 4.8756 25.992 2.9382 39.173-1.1549 7.8488-7.2654 14.476-14.915 16.444-2.7057 1.1002-8.2797 0.52144-6.6761 5.1567z" stop-color="#000000" style="font-variation-settings:normal"/>
            <path d="m252.43 417.6c0.97551 4.8583 6.112 0.85752 7.5949-1.5693 6.1681-7.9209 4.8564-20.001-2.0254-27.065-5.9307-6.6041-14.977-10.903-17.73-19.901-3.3948-10.607 1.4582-21.951 8.5856-29.848 5.4946-6.1764 12.086-11.315 19.125-15.617-0.86254-1.4261-1.7251-2.8522-2.5876-4.2783-11.345 7.0749-22.322 16.06-28.035 28.45-4.6522 9.9403-4.3782 22.753 2.9472 31.365 5.1032 6.3368 13.56 10.293 15.736 18.671 1.5178 5.5615-0.91966 11.23-4.4783 15.453-1.5776 1.5826-0.59415 3.1668 0.86775 4.3393z" stop-color="#000000" style="font-variation-settings:normal"/>
        </g>
    </g>
</svg>
