<svg width="400" height="240" version="1.1" viewBox="0 0 400 240" xmlns="http://www.w3.org/2000/svg">
    <g fill="#fff">
        <path d="m110.26 0c-28.856 1.4364e-4 -52.249 31.782-52.249 70.986 0.03645 17.922 5.0611 35.162 14.065 48.259-4.8696 4.6955-8.5534 11.319-10.548 18.966-6.663-6.845-14.788-10.55-23.141-10.554-21.201 5e-5 -38.387 23.35-38.387 52.153 3.588e-5 28.803 17.187 52.153 38.387 52.153h308.3c29.445-7.1e-4 53.314-32.43 53.315-72.434 5.4e-4 -40.005-23.869-72.436-53.315-72.437-17.495 0.05183-33.859 11.762-43.786 31.335 0.19397-2.2846 0.31503-4.5796 0.36287-6.8785-4.8e-4 -44.004-26.257-79.677-58.646-79.678-14.216 0.01069-27.944 7.0362-38.633 19.769-7.8648-5.3714-16.544-8.1725-25.347-8.1801-7.0988 0.0621-14.125 1.9408-20.712 5.5377-7.0048-29.215-27.049-48.991-49.665-49z" opacity=".5" stop-color="#000000" style="-inkscape-stroke:none"/>
        <path d="m76.775 179.81a38.387 52.153 0 0 1-38.387 52.153 38.387 52.153 0 0 1-38.387-52.153 38.387 52.153 0 0 1 38.387-52.153 38.387 52.153 0 0 1 38.387 52.153z" opacity=".5" stop-color="#000000"/>
        <path d="m400 159.53a53.315 72.435 0 0 1-53.315 72.435 53.315 72.435 0 0 1-53.315-72.435 53.315 72.435 0 0 1 53.315-72.435 53.315 72.435 0 0 1 53.315 72.435z" opacity=".5" stop-color="#000000"/>
        <path d="m162.51 70.987a52.249 70.987 0 0 1-52.249 70.987 52.249 70.987 0 0 1-52.249-70.987 52.249 70.987 0 0 1 52.249-70.987 52.249 70.987 0 0 1 52.249 70.987z" opacity=".5" stop-color="#000000"/>
        <path d="m303.26 111.55a58.647 79.679 0 0 1-58.647 79.679 58.647 79.679 0 0 1-58.647-79.679 58.647 79.679 0 0 1 58.647-79.679 58.647 79.679 0 0 1 58.647 79.679z" opacity=".5" stop-color="#000000"/>
        <path d="m237.15 120.24a56.514 76.781 0 0 1-56.514 76.781 56.514 76.781 0 0 1-56.514-76.781 56.514 76.781 0 0 1 56.514-76.781 56.514 76.781 0 0 1 56.514 76.781z" opacity=".5" stop-color="#000000"/>
        <path d="m300.35 189.64a34.112 46.345 0 0 1-34.112 46.345 34.112 46.345 0 0 1-34.112-46.345 34.112 46.345 0 0 1 34.112-46.345 34.112 46.345 0 0 1 34.112 46.345z" opacity=".5" stop-color="#000000"/>
        <path d="m156.62 176.57a43.727 59.408 0 0 1-43.727 59.408 43.727 59.408 0 0 1-43.727-59.408 43.727 59.408 0 0 1 43.727-59.408 43.727 59.408 0 0 1 43.727 59.408z" opacity=".5" stop-color="#000000"/>
        <path d="m215.82 204.34a26.248 35.661 0 0 1-26.248 35.661 26.248 35.661 0 0 1-26.248-35.661 26.248 35.661 0 0 1 26.248-35.661 26.248 35.661 0 0 1 26.248 35.661z" opacity=".5" stop-color="#000000"/>
    </g>
</svg>
